<?xml version="1.0" encoding="UTF-8" standalone="no"?>
<svg width="1024" height="1024" viewBox="0 0 1024 1024" fill="none" xmlns="http://www.w3.org/2000/svg">
  <rect width="1024" height="1024" rx="160" fill="#FFFFFF"/>
  <rect x="150" y="150" width="624" height="700" rx="88" stroke="#34475A" stroke-width="24"/>
  <text x="250" y="315" fill="#34475A" font-family="Arial, Helvetica, sans-serif" font-size="180" font-weight="700">AI</text>
  <rect x="234" y="432" width="420" height="18" rx="9" fill="#34475A"/>
  <rect x="234" y="524" width="420" height="18" rx="9" fill="#34475A"/>
  <rect x="234" y="616" width="420" height="18" rx="9" fill="#34475A"/>
  <rect x="234" y="708" width="420" height="18" rx="9" fill="#34475A"/>
  <rect x="408" y="336" width="424" height="304" rx="72" fill="#34475A" stroke="#F7F7F7" stroke-width="18"/>
  <path d="M546 438C538.2 433.5 528 439.1 528 448V550C528 558.9 538.2 564.5 546 560L634 509C641.8 504.5 641.8 493.5 634 489L546 438Z" fill="#F7F7F7"/>
</svg>
